<mxfile host="Electron" modified="2024-05-06T19:01:27.308Z" agent="Mozilla/5.0 (Macintosh; Intel Mac OS X 10_15_7) AppleWebKit/537.36 (KHTML, like Gecko) draw.io/24.2.5 Chrome/120.0.6099.109 Electron/28.1.0 Safari/537.36" etag="9yO3_jaZ-JkK48EQDFY0" version="24.2.5" type="device" pages="2">
  <diagram name="Game Loop" id="3esBx3MiylTriN7ocXX8">
    <mxGraphModel dx="1303" dy="1230" grid="0" gridSize="10" guides="1" tooltips="1" connect="1" arrows="1" fold="1" page="0" pageScale="1" pageWidth="850" pageHeight="1100" math="0" shadow="0">
      <root>
        <mxCell id="0" />
        <mxCell id="1" parent="0" />
        <mxCell id="5RhlRhY_Nt4v1iWtN5Uq-1" value="&lt;font style=&quot;font-size: 16px;&quot;&gt;GameState&lt;/font&gt;" style="rounded=0;whiteSpace=wrap;html=1;" vertex="1" parent="1">
          <mxGeometry x="324" y="28.5" width="106" height="46.5" as="geometry" />
        </mxCell>
        <mxCell id="5RhlRhY_Nt4v1iWtN5Uq-2" value="GPU&lt;br&gt;Buffers" style="rounded=0;whiteSpace=wrap;html=1;" vertex="1" parent="1">
          <mxGeometry x="804" y="24.25" width="80" height="47.5" as="geometry" />
        </mxCell>
        <mxCell id="5RhlRhY_Nt4v1iWtN5Uq-31" style="edgeStyle=orthogonalEdgeStyle;rounded=0;orthogonalLoop=1;jettySize=auto;html=1;exitX=0.5;exitY=0;exitDx=0;exitDy=0;entryX=0.5;entryY=0;entryDx=0;entryDy=0;" edge="1" parent="1" source="5RhlRhY_Nt4v1iWtN5Uq-3" target="5RhlRhY_Nt4v1iWtN5Uq-9">
          <mxGeometry relative="1" as="geometry">
            <Array as="points">
              <mxPoint x="1031" y="-41" />
              <mxPoint x="-282" y="-41" />
            </Array>
          </mxGeometry>
        </mxCell>
        <mxCell id="5RhlRhY_Nt4v1iWtN5Uq-3" value="WGPU" style="rounded=0;whiteSpace=wrap;html=1;" vertex="1" parent="1">
          <mxGeometry x="998" y="25.869999999999997" width="66" height="44.25" as="geometry" />
        </mxCell>
        <mxCell id="5RhlRhY_Nt4v1iWtN5Uq-5" value="" style="endArrow=classic;html=1;rounded=0;" edge="1" parent="1" source="5RhlRhY_Nt4v1iWtN5Uq-2" target="5RhlRhY_Nt4v1iWtN5Uq-3">
          <mxGeometry width="50" height="50" relative="1" as="geometry">
            <mxPoint x="305" y="401" as="sourcePoint" />
            <mxPoint x="355" y="351" as="targetPoint" />
          </mxGeometry>
        </mxCell>
        <mxCell id="5RhlRhY_Nt4v1iWtN5Uq-21" value="Render" style="edgeLabel;html=1;align=center;verticalAlign=middle;resizable=0;points=[];" vertex="1" connectable="0" parent="5RhlRhY_Nt4v1iWtN5Uq-5">
          <mxGeometry x="-0.0671" y="-1" relative="1" as="geometry">
            <mxPoint x="-4" y="-1" as="offset" />
          </mxGeometry>
        </mxCell>
        <mxCell id="5RhlRhY_Nt4v1iWtN5Uq-9" value="&lt;div&gt;&lt;span style=&quot;background-color: initial;&quot;&gt;Input Handler&lt;/span&gt;&lt;br&gt;&lt;/div&gt;" style="rounded=0;whiteSpace=wrap;html=1;" vertex="1" parent="1">
          <mxGeometry x="-331" y="28.75" width="99" height="43" as="geometry" />
        </mxCell>
        <mxCell id="5RhlRhY_Nt4v1iWtN5Uq-15" value="Staging" style="whiteSpace=wrap;html=1;" vertex="1" parent="1">
          <mxGeometry x="592" y="25.5" width="97" height="46.25" as="geometry" />
        </mxCell>
        <mxCell id="5RhlRhY_Nt4v1iWtN5Uq-18" value="" style="endArrow=classic;html=1;rounded=0;" edge="1" parent="1" source="5RhlRhY_Nt4v1iWtN5Uq-15" target="5RhlRhY_Nt4v1iWtN5Uq-2">
          <mxGeometry width="50" height="50" relative="1" as="geometry">
            <mxPoint x="411" y="257" as="sourcePoint" />
            <mxPoint x="461" y="207" as="targetPoint" />
          </mxGeometry>
        </mxCell>
        <mxCell id="5RhlRhY_Nt4v1iWtN5Uq-20" value="Update" style="edgeLabel;html=1;align=center;verticalAlign=middle;resizable=0;points=[];" vertex="1" connectable="0" parent="5RhlRhY_Nt4v1iWtN5Uq-18">
          <mxGeometry x="-0.0947" y="2" relative="1" as="geometry">
            <mxPoint as="offset" />
          </mxGeometry>
        </mxCell>
        <mxCell id="5RhlRhY_Nt4v1iWtN5Uq-19" value="" style="endArrow=classic;html=1;rounded=0;" edge="1" parent="1" source="5RhlRhY_Nt4v1iWtN5Uq-1" target="5RhlRhY_Nt4v1iWtN5Uq-15">
          <mxGeometry width="50" height="50" relative="1" as="geometry">
            <mxPoint x="615" y="-24" as="sourcePoint" />
            <mxPoint x="461" y="207" as="targetPoint" />
          </mxGeometry>
        </mxCell>
        <mxCell id="5RhlRhY_Nt4v1iWtN5Uq-30" value="Collect visible&lt;br&gt;meshes" style="edgeLabel;html=1;align=center;verticalAlign=middle;resizable=0;points=[];" vertex="1" connectable="0" parent="5RhlRhY_Nt4v1iWtN5Uq-19">
          <mxGeometry x="-0.5597" relative="1" as="geometry">
            <mxPoint x="33" y="-1" as="offset" />
          </mxGeometry>
        </mxCell>
        <mxCell id="5RhlRhY_Nt4v1iWtN5Uq-22" value="" style="endArrow=classic;html=1;rounded=0;" edge="1" parent="1" source="5RhlRhY_Nt4v1iWtN5Uq-9" target="5RhlRhY_Nt4v1iWtN5Uq-25">
          <mxGeometry width="50" height="50" relative="1" as="geometry">
            <mxPoint x="581" y="144.5" as="sourcePoint" />
            <mxPoint x="-147" y="51.5" as="targetPoint" />
          </mxGeometry>
        </mxCell>
        <mxCell id="5RhlRhY_Nt4v1iWtN5Uq-23" value="Update game &lt;br&gt;state" style="edgeLabel;html=1;align=center;verticalAlign=middle;resizable=0;points=[];" vertex="1" connectable="0" parent="5RhlRhY_Nt4v1iWtN5Uq-22">
          <mxGeometry x="0.0674" relative="1" as="geometry">
            <mxPoint x="-10" as="offset" />
          </mxGeometry>
        </mxCell>
        <mxCell id="5RhlRhY_Nt4v1iWtN5Uq-24" value="&lt;span style=&quot;font-size: 16px;&quot;&gt;Phycics&lt;/span&gt;&lt;div&gt;&lt;span style=&quot;font-size: 16px;&quot;&gt;Engine&lt;/span&gt;&lt;/div&gt;" style="rounded=0;whiteSpace=wrap;html=1;" vertex="1" parent="1">
          <mxGeometry x="85" y="27.5" width="98" height="48.5" as="geometry" />
        </mxCell>
        <mxCell id="5RhlRhY_Nt4v1iWtN5Uq-25" value="Update Game State" style="whiteSpace=wrap;html=1;" vertex="1" parent="1">
          <mxGeometry x="-114" y="27.5" width="87" height="49" as="geometry" />
        </mxCell>
        <mxCell id="5RhlRhY_Nt4v1iWtN5Uq-26" value="" style="endArrow=classic;html=1;rounded=0;" edge="1" parent="1" source="5RhlRhY_Nt4v1iWtN5Uq-25" target="5RhlRhY_Nt4v1iWtN5Uq-24">
          <mxGeometry width="50" height="50" relative="1" as="geometry">
            <mxPoint x="60" y="31" as="sourcePoint" />
            <mxPoint x="110" y="-19" as="targetPoint" />
            <Array as="points" />
          </mxGeometry>
        </mxCell>
        <mxCell id="5RhlRhY_Nt4v1iWtN5Uq-32" value="Process&lt;br&gt;game state" style="edgeLabel;html=1;align=center;verticalAlign=middle;resizable=0;points=[];" vertex="1" connectable="0" parent="5RhlRhY_Nt4v1iWtN5Uq-26">
          <mxGeometry x="-0.1079" relative="1" as="geometry">
            <mxPoint as="offset" />
          </mxGeometry>
        </mxCell>
        <mxCell id="5RhlRhY_Nt4v1iWtN5Uq-27" value="" style="endArrow=classic;html=1;rounded=0;" edge="1" parent="1" source="5RhlRhY_Nt4v1iWtN5Uq-24" target="5RhlRhY_Nt4v1iWtN5Uq-1">
          <mxGeometry width="50" height="50" relative="1" as="geometry">
            <mxPoint x="7" y="28" as="sourcePoint" />
            <mxPoint x="57" y="-22" as="targetPoint" />
          </mxGeometry>
        </mxCell>
        <mxCell id="5RhlRhY_Nt4v1iWtN5Uq-28" value="Update Game&lt;br&gt;State" style="edgeLabel;html=1;align=center;verticalAlign=middle;resizable=0;points=[];" vertex="1" connectable="0" parent="5RhlRhY_Nt4v1iWtN5Uq-27">
          <mxGeometry x="-0.268" y="-1" relative="1" as="geometry">
            <mxPoint x="19" y="-2" as="offset" />
          </mxGeometry>
        </mxCell>
      </root>
    </mxGraphModel>
  </diagram>
  <diagram id="xWSdsE2uIlk46cagmQxe" name="Architecture">
    <mxGraphModel dx="1959" dy="1497" grid="0" gridSize="10" guides="1" tooltips="1" connect="1" arrows="1" fold="1" page="0" pageScale="1" pageWidth="850" pageHeight="1100" math="0" shadow="0">
      <root>
        <mxCell id="0" />
        <mxCell id="1" parent="0" />
        <mxCell id="LuiPVQ2kHAIDUi5gGHtN-1" value="Mouse&lt;br&gt;Senstivity" style="rounded=0;whiteSpace=wrap;html=1;" vertex="1" parent="1">
          <mxGeometry x="-623" y="-486" width="65" height="40.5" as="geometry" />
        </mxCell>
        <mxCell id="LuiPVQ2kHAIDUi5gGHtN-2" value="Game State" style="whiteSpace=wrap;html=1;" vertex="1" parent="1">
          <mxGeometry x="-716" y="-373" width="76" height="37" as="geometry" />
        </mxCell>
        <mxCell id="LuiPVQ2kHAIDUi5gGHtN-3" value="Renderer" style="whiteSpace=wrap;html=1;" vertex="1" parent="1">
          <mxGeometry x="-467" y="-310" width="67" height="30" as="geometry" />
        </mxCell>
        <mxCell id="LuiPVQ2kHAIDUi5gGHtN-4" value="Camera" style="whiteSpace=wrap;html=1;" vertex="1" parent="1">
          <mxGeometry x="-778" y="-528" width="55" height="24" as="geometry" />
        </mxCell>
        <mxCell id="Z93hOCOSrr8EOUs0kEAd-1" value="Players" style="rounded=0;whiteSpace=wrap;html=1;" vertex="1" parent="1">
          <mxGeometry x="-876" y="-489" width="54" height="28" as="geometry" />
        </mxCell>
        <mxCell id="Z93hOCOSrr8EOUs0kEAd-2" value="" style="endArrow=classic;html=1;rounded=0;" edge="1" parent="1" source="LuiPVQ2kHAIDUi5gGHtN-2" target="Z93hOCOSrr8EOUs0kEAd-1">
          <mxGeometry width="50" height="50" relative="1" as="geometry">
            <mxPoint x="-662" y="-398" as="sourcePoint" />
            <mxPoint x="-612" y="-448" as="targetPoint" />
          </mxGeometry>
        </mxCell>
        <mxCell id="Z93hOCOSrr8EOUs0kEAd-3" value="" style="endArrow=classic;html=1;rounded=0;" edge="1" parent="1" source="LuiPVQ2kHAIDUi5gGHtN-2" target="LuiPVQ2kHAIDUi5gGHtN-4">
          <mxGeometry width="50" height="50" relative="1" as="geometry">
            <mxPoint x="-795" y="-364" as="sourcePoint" />
            <mxPoint x="-745" y="-414" as="targetPoint" />
          </mxGeometry>
        </mxCell>
        <mxCell id="Z93hOCOSrr8EOUs0kEAd-4" value="GLTF&lt;br&gt;Assets" style="whiteSpace=wrap;html=1;" vertex="1" parent="1">
          <mxGeometry x="-904" y="-424" width="58" height="34" as="geometry" />
        </mxCell>
        <mxCell id="Z93hOCOSrr8EOUs0kEAd-5" value="" style="endArrow=classic;html=1;rounded=0;" edge="1" parent="1" source="LuiPVQ2kHAIDUi5gGHtN-2" target="Z93hOCOSrr8EOUs0kEAd-4">
          <mxGeometry width="50" height="50" relative="1" as="geometry">
            <mxPoint x="-795" y="-364" as="sourcePoint" />
            <mxPoint x="-745" y="-414" as="targetPoint" />
          </mxGeometry>
        </mxCell>
        <mxCell id="Z93hOCOSrr8EOUs0kEAd-7" value="Speed" style="whiteSpace=wrap;html=1;" vertex="1" parent="1">
          <mxGeometry x="-692" y="-555" width="54" height="29" as="geometry" />
        </mxCell>
        <mxCell id="Z93hOCOSrr8EOUs0kEAd-8" value="Last update" style="whiteSpace=wrap;html=1;" vertex="1" parent="1">
          <mxGeometry x="-910" y="-339" width="54" height="29" as="geometry" />
        </mxCell>
        <mxCell id="Z93hOCOSrr8EOUs0kEAd-9" value="" style="endArrow=classic;html=1;rounded=0;" edge="1" parent="1" source="LuiPVQ2kHAIDUi5gGHtN-2" target="Z93hOCOSrr8EOUs0kEAd-8">
          <mxGeometry width="50" height="50" relative="1" as="geometry">
            <mxPoint x="-797" y="-362" as="sourcePoint" />
            <mxPoint x="-747" y="-412" as="targetPoint" />
          </mxGeometry>
        </mxCell>
        <mxCell id="Z93hOCOSrr8EOUs0kEAd-10" value="" style="endArrow=classic;html=1;rounded=0;" edge="1" parent="1" source="LuiPVQ2kHAIDUi5gGHtN-2" target="Z93hOCOSrr8EOUs0kEAd-7">
          <mxGeometry width="50" height="50" relative="1" as="geometry">
            <mxPoint x="-797" y="-362" as="sourcePoint" />
            <mxPoint x="-747" y="-412" as="targetPoint" />
          </mxGeometry>
        </mxCell>
        <mxCell id="Z93hOCOSrr8EOUs0kEAd-12" value="" style="endArrow=classic;html=1;rounded=0;" edge="1" parent="1" source="LuiPVQ2kHAIDUi5gGHtN-2" target="LuiPVQ2kHAIDUi5gGHtN-1">
          <mxGeometry width="50" height="50" relative="1" as="geometry">
            <mxPoint x="-703" y="-333" as="sourcePoint" />
            <mxPoint x="-653" y="-383" as="targetPoint" />
          </mxGeometry>
        </mxCell>
        <mxCell id="W6wkmll6jMvTXv3pT3cO-1" value="Game&lt;br&gt;&lt;div&gt;Engine&lt;/div&gt;" style="whiteSpace=wrap;html=1;" vertex="1" parent="1">
          <mxGeometry x="-621" y="-280" width="61" height="41" as="geometry" />
        </mxCell>
        <mxCell id="W6wkmll6jMvTXv3pT3cO-2" value="" style="endArrow=classic;html=1;rounded=0;" edge="1" parent="1" source="W6wkmll6jMvTXv3pT3cO-1" target="LuiPVQ2kHAIDUi5gGHtN-2">
          <mxGeometry width="50" height="50" relative="1" as="geometry">
            <mxPoint x="-566" y="-303" as="sourcePoint" />
            <mxPoint x="-516" y="-353" as="targetPoint" />
          </mxGeometry>
        </mxCell>
        <mxCell id="W6wkmll6jMvTXv3pT3cO-3" value="" style="endArrow=classic;html=1;rounded=0;" edge="1" parent="1" source="W6wkmll6jMvTXv3pT3cO-1" target="LuiPVQ2kHAIDUi5gGHtN-3">
          <mxGeometry width="50" height="50" relative="1" as="geometry">
            <mxPoint x="-566" y="-303" as="sourcePoint" />
            <mxPoint x="-516" y="-353" as="targetPoint" />
          </mxGeometry>
        </mxCell>
        <mxCell id="IjWPlXw_dhWHJYVynhJu-1" value="WGPU" style="whiteSpace=wrap;html=1;" vertex="1" parent="1">
          <mxGeometry x="-407" y="-398" width="65" height="31" as="geometry" />
        </mxCell>
        <mxCell id="v2AQMiiW767Zbir0Rz4g-1" value="" style="endArrow=classic;html=1;rounded=0;" edge="1" parent="1" source="LuiPVQ2kHAIDUi5gGHtN-3" target="IjWPlXw_dhWHJYVynhJu-1">
          <mxGeometry width="50" height="50" relative="1" as="geometry">
            <mxPoint x="-428" y="-374" as="sourcePoint" />
            <mxPoint x="-378" y="-424" as="targetPoint" />
          </mxGeometry>
        </mxCell>
        <mxCell id="QAyzz2cccHOGsdTfh78b-1" value="Phycics&lt;br&gt;Engine" style="rounded=0;whiteSpace=wrap;html=1;" vertex="1" parent="1">
          <mxGeometry x="-664" y="-166" width="60" height="35" as="geometry" />
        </mxCell>
        <mxCell id="hpb20aQyNyJH9Idzyjvu-1" value="" style="endArrow=classic;html=1;rounded=0;" edge="1" parent="1" source="W6wkmll6jMvTXv3pT3cO-1" target="QAyzz2cccHOGsdTfh78b-1">
          <mxGeometry width="50" height="50" relative="1" as="geometry">
            <mxPoint x="-575" y="-329" as="sourcePoint" />
            <mxPoint x="-525" y="-379" as="targetPoint" />
          </mxGeometry>
        </mxCell>
        <mxCell id="vk0q4bqFwNRCPcR6JTiS-1" value="Last Buffer states" style="whiteSpace=wrap;html=1;" vertex="1" parent="1">
          <mxGeometry x="-407" y="-200" width="70" height="43" as="geometry" />
        </mxCell>
        <mxCell id="vk0q4bqFwNRCPcR6JTiS-2" value="" style="endArrow=classic;html=1;rounded=0;" edge="1" parent="1" source="LuiPVQ2kHAIDUi5gGHtN-3" target="vk0q4bqFwNRCPcR6JTiS-1">
          <mxGeometry width="50" height="50" relative="1" as="geometry">
            <mxPoint x="-656" y="-310" as="sourcePoint" />
            <mxPoint x="-606" y="-360" as="targetPoint" />
          </mxGeometry>
        </mxCell>
      </root>
    </mxGraphModel>
  </diagram>
</mxfile>
